<svg width="300" height="70" viewBox="0 0 300 70" fill="none" xmlns="http://www.w3.org/2000/svg">
<path d="M6.83858 11.6093C3.81461 6.47575 7.51575 0 13.4738 0H290C295.523 0 300 4.47715 300 10V60C300 65.5229 295.523 70 290 70H8.83645C3.9562 70 0 66.0438 0 61.1635C0 55.7948 4.74821 51.6665 10.0649 52.4129L44.8489 57.2957C45.8048 57.4299 46.7791 57.3296 47.6877 57.0036C53.8649 54.7868 52.437 45.6707 45.8779 45.4488L36.1634 45.1202C33.9519 45.0454 31.9347 43.8373 30.8249 41.9229C28.2476 37.4772 31.6765 31.9556 36.804 32.2945L75.4434 34.8483C79.8644 35.1405 81.2382 28.9847 77.1124 27.3695C74.1175 26.1971 73.7702 22.0979 76.5253 20.4384L77.421 19.8988C78.3794 19.3215 79.522 19.1317 80.6155 19.3681L95.3267 22.5493C99.0118 23.3461 102.008 19.5673 100.393 16.1609C99.6247 14.5421 97.9773 13.5256 96.1861 13.5654L13.6449 15.3997C10.8572 15.4616 8.25381 14.0118 6.83858 11.6093Z" fill="#313131"/>
</svg>
