<svg width="300" height="70" viewBox="0 0 300 70" fill="none" xmlns="http://www.w3.org/2000/svg">
<path d="M53.4055 11.7668C47.6602 8.70796 49.8338 0 56.3427 0H290C295.523 0 300 4.47715 300 10V60C300 65.5229 295.523 70 290 70H7.4017C3.31385 70 0 66.6861 0 62.5983C0 59.0564 2.5092 56.0109 5.98565 55.3333L27.8458 51.0724C32.7102 50.1243 34.8564 44.3721 31.802 40.4693L28.7733 36.5993C25.7204 32.6983 29.4901 27.1821 34.2337 28.6091L47.1745 32.5023C50.8174 33.5982 53.0694 28.6319 49.8447 26.6137C46.9473 24.8004 48.4357 20.3179 51.8422 20.5978L91.9203 23.8899C92.8019 23.9623 93.6883 23.8287 94.5094 23.4996C100.338 21.1639 98.6662 12.5 92.3873 12.5H56.3427C55.3184 12.5 54.3097 12.2482 53.4055 11.7668Z" fill="#637F59"/>
</svg>
