<svg width="891" height="1023" viewBox="0 0 891 1023" fill="none" xmlns="http://www.w3.org/2000/svg">
<path d="M42.7986 58.8703C47.2462 29.2207 79.2245 12.4392 106.151 25.6245L107.177 26.1272C121.546 33.1631 138.564 32.0754 151.92 23.2674L161.058 17.2409C178.414 5.79469 200.232 3.44171 219.63 10.9241L246.527 21.2993C273.581 31.7353 303.494 32.0488 330.762 22.1824L366.256 9.33903C384.461 2.75185 404.595 4.11951 421.742 13.1079L439.817 22.5828C456.609 31.3855 477.212 27.8952 490.168 14.0529V14.0529C499.058 4.55517 511.835 -0.306406 524.79 0.879442L535.649 1.87343C545.067 2.73558 553.993 6.4743 561.214 12.5823L561.818 13.0933C578.506 27.2088 602.909 27.3425 619.751 13.4107V13.4107C630.716 4.34043 645.315 0.970561 659.146 4.31737L686.146 10.8507C696.848 13.4404 708.062 12.9753 718.512 9.50837L724.792 7.42502C740.545 2.19935 757.884 5.63526 770.453 16.473L782.402 26.7758C789.892 33.2339 800.572 34.4464 809.319 29.8316V29.8316C829.173 19.3571 851.277 39.393 842.797 60.1769L837.222 73.8402C834.635 80.1797 834.342 87.2231 836.392 93.7559L851.437 141.703C855.064 153.262 861.02 163.955 868.938 173.124V173.124C889.966 197.471 896.162 231.296 885.131 261.516L883.611 265.678C880.586 273.966 876.435 281.799 871.276 288.956L867.244 294.549C852.705 314.718 847.885 340.308 854.09 364.385L855.183 368.627C856.345 373.137 858.114 377.47 860.441 381.505L872.592 402.584C882.133 419.134 874.534 440.291 856.643 446.987V446.987C841.088 452.809 832.91 469.879 838.122 485.649L864.898 566.667C871.599 586.941 870.768 608.951 862.559 628.662L852.1 653.774C847.185 665.576 848.512 679.056 855.635 689.673L860.082 696.3C868.664 709.091 865.959 726.333 853.872 735.882V735.882C840.357 746.559 838.826 766.495 850.552 779.111L853.787 782.591C865.71 795.419 865.121 815.446 852.464 827.551L849.613 830.278C838.189 841.205 837.988 859.391 849.167 870.568L855.464 876.863C866.83 888.226 862.832 907.514 847.886 913.424V913.424C831.035 920.086 828.716 942.986 843.889 952.892L847.236 955.077C851.112 957.607 854.188 961.188 856.106 965.401L867.674 990.816C873.562 1003.75 865.254 1018.7 851.157 1020.52L837.293 1022.32C827.874 1023.54 820.519 1014.33 823.791 1005.42V1005.42C826.434 998.212 822.106 990.333 814.609 988.698L802.144 985.98C793.297 984.051 787.228 994.66 793.375 1001.31V1001.31C798.856 1007.24 794.652 1016.85 786.579 1016.85H780.88C776.321 1016.85 772.174 1014.21 770.24 1010.08L768.997 1007.43C764.885 998.65 753.014 997.182 746.889 1004.7V1004.7C741.33 1011.51 730.776 1011.06 725.823 1003.79L724.576 1001.96C720.558 996.066 712.908 993.874 706.378 996.746L692.891 1002.68C683.86 1006.65 673.723 1000.04 673.723 990.171V989.123C673.723 978.942 662.601 972.668 653.887 977.933V977.933C650.34 980.076 645.987 980.411 642.154 978.835L621.502 970.343C609.961 965.598 597.298 974.084 597.298 986.562V986.562C597.298 994.604 591.827 1001.62 584.027 1003.57L564.669 1008.43C554.371 1011.01 545.039 1001.68 547.62 991.378L549.052 985.668C550.871 978.409 544.567 971.702 537.21 973.07V973.07C533.071 973.839 529.821 977.054 529.007 981.184L525.25 1000.25C523.371 1009.79 514.791 1016.51 505.081 1016.06L486.252 1015.17C477.323 1014.76 472.868 1004.17 478.811 997.494V997.494C485.885 989.545 478.081 977.315 467.85 980.24V980.24C465.377 980.948 462.721 980.74 460.391 979.65L431.9 966.32C423.761 962.513 415.608 971.53 420.046 979.342V979.342C420.787 980.646 421.182 982.129 421.182 983.628V983.628C421.182 989.195 416.004 993.315 410.58 992.066L380.701 985.185C370.765 982.896 362.402 992.804 366.325 1002.22V1002.22C369.766 1010.47 363.703 1019.57 354.761 1019.57H340.784C327.618 1019.57 317.444 1008 319.117 994.945L320.028 987.83C321.515 976.223 312.472 965.948 300.77 965.948H292.458C282.523 965.948 275.797 976.072 279.65 985.231V985.231C282.591 992.222 279.383 1000.28 272.441 1003.34L252.503 1012.11C247.438 1014.34 241.752 1010.64 241.752 1005.1V1005.1C241.752 1002.14 240.041 999.436 237.359 998.171L231.049 995.194C221.265 990.578 209.618 995.22 205.691 1005.3L204.938 1007.23C201.775 1015.35 193.846 1020.6 185.136 1020.35L184.509 1020.33C171.078 1019.93 161.3 1007.44 164.137 994.308L168.894 972.293C170.438 965.146 165.48 958.225 158.216 957.387L148.973 956.321C140.429 955.336 135.409 965.655 141.458 971.77V971.77C145.991 976.351 144.459 984.064 138.518 986.564L128.219 990.9C124.981 992.264 121.395 992.568 117.973 991.771L88.7248 984.956C78.7319 982.628 71.8757 994.775 79.0337 1002.13V1002.13C85.3722 1008.64 80.7597 1019.57 71.6738 1019.57H18.6315C16.0346 1019.57 13.4683 1019.01 11.1072 1017.92V1017.92C-0.473586 1012.62 -3.08141 997.323 6.08844 988.483L20.2422 974.838C30.0663 965.367 32.6677 950.643 26.6838 938.379L16.272 917.04C9.16365 902.471 10.6711 885.17 20.192 872.05L28.3564 860.799C38.9598 846.187 34.8772 825.641 19.4931 816.193V816.193C10.3148 810.557 4.72189 800.559 4.72189 789.788V771.077C4.72189 761.412 9.33883 752.329 17.1466 746.633L28.2153 738.558C40.7987 729.377 39.6931 710.264 26.1352 702.596V702.596C14.8168 696.195 11.7628 681.269 19.6571 670.936L31.0741 655.993L42.8235 642.873C58.8933 624.93 67.7791 601.689 67.7791 577.601V574.848C67.7791 569.72 68.3261 564.607 69.4108 559.595L74.2577 537.201C76.6581 526.111 73.0115 514.579 64.6717 506.885V506.885C51.4212 494.661 50.8661 473.914 63.4439 460.999L73.5598 450.612C85.1026 438.759 89.4162 421.634 84.8654 405.728L71.0641 357.489C68.9336 350.042 64.4094 343.505 58.191 338.887V338.887C43.0316 327.63 39.4365 306.426 50.0382 290.801L59.8175 276.388C70.8184 260.175 70.5308 238.819 59.0972 222.908V222.908C47.8731 207.288 47.3719 186.385 57.8346 170.245L60.2955 166.449C71.2352 149.573 71.7515 127.979 61.6308 110.599L48.3319 87.7628C43.2535 79.0422 41.3016 68.8502 42.7986 58.8703V58.8703Z" fill="#F7E4C4"/>
</svg>
