<svg width="120" height="40" viewBox="0 0 120 40" fill="none" xmlns="http://www.w3.org/2000/svg">
<path d="M120 30C120 35.5228 115.523 40 110 40L10 40C4.47715 40 0 35.5228 0 30V4.49029C0 2.01037 2.01037 0 4.49029 0C5.15513 0 5.81168 0.147636 6.41251 0.432243L13.2991 3.69432C14.3974 4.21456 15.2759 5.10701 15.7788 6.21335L16.8688 8.61128C18.1646 11.4622 22.154 11.6228 23.6749 8.88527L25.3483 5.873C26.2191 4.30556 28.5144 4.43459 29.2041 6.08974C29.6482 7.1557 30.8564 7.67884 31.9377 7.27337L40.6466 4.00751C42.7125 3.2328 44.7206 5.26961 43.9166 7.32429C43.0656 9.49902 45.3428 11.5786 47.4316 10.5342L50.1763 9.16186C51.5727 8.46363 53.2563 8.70905 54.3953 9.77688L56.8983 12.1234C58.6949 13.8077 61.6066 13.2869 62.7079 11.0843L64.1365 8.22694C64.9043 6.69135 67.0957 6.69135 67.8635 8.22693C68.4514 9.40287 69.9682 9.74692 71.006 8.93975L71.5257 8.53558C72.6309 7.67594 74.2165 7.83593 75.1278 8.89904L75.402 9.21906C77.0654 11.1597 80.2337 10.3317 80.7349 7.82541L81.3325 4.83736C81.7948 2.52614 84.7464 1.80798 86.2188 3.64849C86.405 3.88131 86.5525 4.14263 86.6556 4.4224L88.152 8.48394C88.9414 10.6267 91.8011 11.0236 93.1442 9.17678C93.6819 8.43743 94.5409 8 95.4551 8H96.8769C99.3001 8 101.412 6.35083 102 4L102.38 2.4795C102.744 1.02228 104.054 0 105.556 0H105.719C107.072 0 108.264 0.889915 108.648 2.18716L109.61 5.43301C110.249 7.58875 113.337 7.48153 113.825 5.2867C113.938 4.77904 114.229 4.32849 114.645 4.01647L114.937 3.79759C117.023 2.2329 120 3.72149 120 6.32932V30Z" fill="#C3513D"/>
</svg>
