<svg width="129" height="63" viewBox="0 0 129 63" fill="none" xmlns="http://www.w3.org/2000/svg">
<g filter="url(#filter0_dd_5140_3561)">
<path d="M4 10C4 4.47715 8.47715 0 14 0H117.52C121.651 0 125 3.34883 125 7.47983V7.47983C125 11.2164 122.242 14.3798 118.541 14.8897L113.248 15.6187C111.662 15.8372 110.48 17.193 110.48 18.7944V18.7944C110.48 20.5648 111.915 22 113.686 22H117.74C121.75 22 125 25.2504 125 29.26V45C125 50.5228 120.523 55 115 55H10.125C6.74226 55 4 52.2577 4 48.875V48.875C4 45.4923 6.74226 42.75 10.125 42.75H13.44C17.5821 42.75 20.94 39.3921 20.94 35.25V35.25C20.94 31.1079 17.5821 27.75 13.44 27.75H12.47C7.79215 27.75 4 23.9579 4 19.28V10Z" fill="#C3513D"/>
</g>
<defs>
<filter id="filter0_dd_5140_3561" x="0" y="0" width="129" height="63" filterUnits="userSpaceOnUse" color-interpolation-filters="sRGB">
<feFlood flood-opacity="0" result="BackgroundImageFix"/>
<feColorMatrix in="SourceAlpha" type="matrix" values="0 0 0 0 0 0 0 0 0 0 0 0 0 0 0 0 0 0 127 0" result="hardAlpha"/>
<feOffset dy="4"/>
<feGaussianBlur stdDeviation="2"/>
<feComposite in2="hardAlpha" operator="out"/>
<feColorMatrix type="matrix" values="0 0 0 0 0 0 0 0 0 0 0 0 0 0 0 0 0 0 0.25 0"/>
<feBlend mode="normal" in2="BackgroundImageFix" result="effect1_dropShadow_5140_3561"/>
<feColorMatrix in="SourceAlpha" type="matrix" values="0 0 0 0 0 0 0 0 0 0 0 0 0 0 0 0 0 0 127 0" result="hardAlpha"/>
<feOffset dy="4"/>
<feGaussianBlur stdDeviation="2"/>
<feComposite in2="hardAlpha" operator="out"/>
<feColorMatrix type="matrix" values="0 0 0 0 0 0 0 0 0 0 0 0 0 0 0 0 0 0 0.25 0"/>
<feBlend mode="normal" in2="effect1_dropShadow_5140_3561" result="effect2_dropShadow_5140_3561"/>
<feBlend mode="normal" in="SourceGraphic" in2="effect2_dropShadow_5140_3561" result="shape"/>
</filter>
</defs>
</svg>
