<svg width="233" height="63" viewBox="0 0 233 63" fill="none" xmlns="http://www.w3.org/2000/svg">
<g filter="url(#filter0_dd_5151_3366)">
<path d="M4 10C4 4.47715 8.47715 0 14 0H221.741C225.75 0 229 3.24992 229 7.2589V7.2589C229 11.0599 226.068 14.2172 222.277 14.498L204.881 15.7866C203.257 15.9069 202 17.2601 202 18.889V18.889C202 20.6072 203.393 22 205.111 22H219C224.523 22 229 26.4772 229 32V45C229 50.5228 224.523 55 219 55H10.125C6.74225 55 4 52.2577 4 48.875V48.875C4 45.4923 6.74226 42.75 10.125 42.75H28C32.1421 42.75 35.5 39.3921 35.5 35.25V35.25C35.5 31.1079 32.1421 27.75 28 27.75H14C8.47715 27.75 4 23.2728 4 17.75V10Z" fill="#C3513D"/>
</g>
<defs>
<filter id="filter0_dd_5151_3366" x="0" y="0" width="233" height="63" filterUnits="userSpaceOnUse" color-interpolation-filters="sRGB">
<feFlood flood-opacity="0" result="BackgroundImageFix"/>
<feColorMatrix in="SourceAlpha" type="matrix" values="0 0 0 0 0 0 0 0 0 0 0 0 0 0 0 0 0 0 127 0" result="hardAlpha"/>
<feOffset dy="4"/>
<feGaussianBlur stdDeviation="2"/>
<feComposite in2="hardAlpha" operator="out"/>
<feColorMatrix type="matrix" values="0 0 0 0 0 0 0 0 0 0 0 0 0 0 0 0 0 0 0.25 0"/>
<feBlend mode="normal" in2="BackgroundImageFix" result="effect1_dropShadow_5151_3366"/>
<feColorMatrix in="SourceAlpha" type="matrix" values="0 0 0 0 0 0 0 0 0 0 0 0 0 0 0 0 0 0 127 0" result="hardAlpha"/>
<feOffset dy="4"/>
<feGaussianBlur stdDeviation="2"/>
<feComposite in2="hardAlpha" operator="out"/>
<feColorMatrix type="matrix" values="0 0 0 0 0 0 0 0 0 0 0 0 0 0 0 0 0 0 0.25 0"/>
<feBlend mode="normal" in2="effect1_dropShadow_5151_3366" result="effect2_dropShadow_5151_3366"/>
<feBlend mode="normal" in="SourceGraphic" in2="effect2_dropShadow_5151_3366" result="shape"/>
</filter>
</defs>
</svg>
