<svg width="840" height="843" viewBox="0 0 840 843" fill="none" xmlns="http://www.w3.org/2000/svg">
<g filter="url(#filter0_dd_5013_15017)">
<path d="M59.9246 106.586C50.3654 67.7536 87.2399 33.5587 125.242 46.0149L152.77 55.038C171.835 61.2872 192.697 58.663 209.62 47.887L235.628 31.327C273.193 7.40741 320.278 4.01401 360.885 22.2997L401.507 40.592C457.301 65.7165 521.164 65.839 577.054 40.9287L647.206 9.66218C671.329 -1.08976 698.504 -2.85566 723.816 4.68372L734.643 7.9087C755.109 14.0045 772.418 27.7906 782.937 46.3738C795.027 67.7306 796.993 93.358 788.301 116.309L765.82 175.668C757.744 196.992 759.754 220.825 771.286 240.495L802.012 292.904C811.807 309.612 802.963 331.057 784.237 336.001C763.349 341.516 755.432 366.986 769.512 383.371L817.736 439.489C829.52 453.203 836 470.685 836 488.766V623.43C836 646.575 814.55 663.756 791.963 658.702C762.3 652.064 738.189 682.78 751.683 710.018L754.818 716.346C768.712 744.394 746.032 776.694 714.933 773.148L709.49 772.527C690.381 770.348 675.117 755.607 672.273 736.586L664.212 682.661C662.919 674.011 656.865 666.827 648.559 664.085C633.569 659.138 618.129 670.301 618.129 686.087V772.86C618.129 778.356 616.192 783.675 612.659 787.885C599.384 803.701 573.62 795.789 571.511 775.248L571.229 772.51C568.617 747.077 533.71 742.097 524.09 765.785L505.099 812.554C497.301 831.755 474.911 840.385 456.243 831.384C442.471 824.744 434.416 810.109 436.173 794.921L447.708 695.198C448.354 689.611 446.452 684.029 442.528 680C431.929 669.117 413.463 674.741 410.731 689.685L400.001 748.374C397.697 760.977 388.664 771.299 376.478 775.255C355.317 782.125 333.224 767.678 331.033 745.538L325.137 685.948C323.307 667.451 301.45 658.628 287.292 670.671C277.253 679.209 262.111 677.599 254.091 667.142L252.912 665.605C241.644 650.913 218.849 653.24 210.782 669.905L185.168 722.824C172.278 749.455 142.166 763.031 113.674 755.056L102.206 751.846C66.5312 741.861 45.4113 705.16 54.7038 669.299C60.4753 647.026 54.5934 623.345 39.0711 606.361L29.1547 595.511C5.64006 569.782 -1.91616 533.252 9.46176 500.306L31.6523 436.05C43.9651 400.397 46.4198 362.08 38.7572 325.147L30.3889 284.813C22.9606 249.01 26.5769 211.795 40.7594 178.092L57.4141 138.513C61.6624 128.418 62.5428 117.221 59.9246 106.586Z" fill="#F7E4C4"/>
</g>
<defs>
<filter id="filter0_dd_5013_15017" x="0.250122" y="0.0810547" width="839.75" height="842.877" filterUnits="userSpaceOnUse" color-interpolation-filters="sRGB">
<feFlood flood-opacity="0" result="BackgroundImageFix"/>
<feColorMatrix in="SourceAlpha" type="matrix" values="0 0 0 0 0 0 0 0 0 0 0 0 0 0 0 0 0 0 127 0" result="hardAlpha"/>
<feOffset dy="4"/>
<feGaussianBlur stdDeviation="2"/>
<feComposite in2="hardAlpha" operator="out"/>
<feColorMatrix type="matrix" values="0 0 0 0 0 0 0 0 0 0 0 0 0 0 0 0 0 0 0.25 0"/>
<feBlend mode="normal" in2="BackgroundImageFix" result="effect1_dropShadow_5013_15017"/>
<feColorMatrix in="SourceAlpha" type="matrix" values="0 0 0 0 0 0 0 0 0 0 0 0 0 0 0 0 0 0 127 0" result="hardAlpha"/>
<feOffset dy="4"/>
<feGaussianBlur stdDeviation="2"/>
<feComposite in2="hardAlpha" operator="out"/>
<feColorMatrix type="matrix" values="0 0 0 0 0 0 0 0 0 0 0 0 0 0 0 0 0 0 0.25 0"/>
<feBlend mode="normal" in2="effect1_dropShadow_5013_15017" result="effect2_dropShadow_5013_15017"/>
<feBlend mode="normal" in="SourceGraphic" in2="effect2_dropShadow_5013_15017" result="shape"/>
</filter>
</defs>
</svg>
