<svg width="914" height="791" viewBox="0 0 914 791" fill="none" xmlns="http://www.w3.org/2000/svg">
<path d="M51.4138 99.231C42.711 69.2459 70.978 41.6814 100.735 51.1358C109.66 53.9717 119.308 53.5049 127.918 49.8206L161.126 35.6109C171.168 31.314 182.34 30.4235 192.936 33.0754L270.897 52.5878C278.627 54.5225 286.708 54.5816 294.465 52.7603L381.764 32.2645C390.884 30.1232 400.423 30.5874 409.292 33.6041L446.293 46.1889C463.081 51.8991 481.656 47.4728 494.065 34.8053L499.285 29.4768C509.781 18.7632 525.875 15.7995 539.498 22.072C552.422 28.0223 567.649 25.6838 578.191 16.1299L583.56 11.2646C599.014 -2.74143 622.325 -3.53509 638.697 9.38735C648.622 17.2218 661.509 20.2548 673.887 17.6696L691.755 13.9378C699.08 12.4078 706.656 12.5417 713.923 14.3296L766.934 27.3724C771.292 28.4445 775.485 30.0982 779.401 32.2891L805.068 46.6488C815.172 52.3019 827.205 53.3893 838.159 49.6394C866.312 40.0019 894.966 62.8125 891.884 92.4096L887.984 129.87C887.322 136.236 887.887 142.67 889.65 148.822L906.11 206.256C908.962 216.208 908.654 226.8 905.23 236.569L894.947 265.91C890.03 279.937 893.104 295.528 902.977 306.64C914.885 320.043 916.686 339.636 907.42 354.986L886.945 388.905C878.503 402.89 877.425 420.116 884.057 435.044L897.137 464.488C903.073 477.851 902.862 493.143 896.56 506.337L893.124 513.531C886.699 526.984 886.612 542.602 892.886 556.125L902.689 577.253C905.204 582.672 906.726 588.498 907.186 594.454L909.71 627.192C910.543 638 907.841 648.786 902.012 657.925L892.887 672.23C886.517 682.215 884.154 694.237 886.27 705.889L892.448 739.921C895.359 755.955 881.281 769.923 865.27 766.886C851.734 764.32 843.396 750.602 847.35 737.404L860.526 693.425C863.105 684.817 859.207 675.59 851.239 671.437C838.229 664.656 822.827 674.784 823.898 689.416L826.701 727.723C827.139 733.713 823.386 739.212 817.648 740.988L812.283 742.648C806.648 744.392 800.935 740.18 800.935 734.281C800.935 725.139 788.689 722.111 784.428 730.199L766.621 764.002C760.706 775.232 743.637 770.08 744.922 757.453L748.208 725.148C749.254 714.87 734.522 711.965 731.588 721.871C729.272 729.691 718.343 730.086 715.469 722.453L705.263 695.344C700.436 682.522 681.613 684.952 680.2 698.58C679.07 709.484 665.769 714.165 658.059 706.373L651.512 699.756C639.713 687.831 619.536 697.887 621.953 714.488L627.635 753.501C629.591 766.935 619.175 778.977 605.601 778.977C595.906 778.977 587.325 772.705 584.383 763.467L567.647 710.915C565.42 703.922 558.538 699.498 551.252 700.377C544.472 701.195 539.057 706.41 537.985 713.154L532.364 748.524C530.46 760.504 516.792 766.487 506.699 759.76C502.916 757.238 500.329 753.279 499.54 748.802L490.094 695.23C488.552 686.484 476.366 685.56 473.522 693.973C471.525 699.881 464.091 701.75 459.537 697.49L452.224 690.649C444.522 683.443 431.986 686.207 428.028 695.983L426.515 699.718C424.736 704.113 424.792 709.056 426.657 713.416C434.754 732.348 410.711 748.689 396.381 733.903L379.891 716.888C367.375 703.973 345.542 709.828 341.167 727.272L337.703 741.087C336.737 744.938 334.216 748.216 330.742 750.138C319.822 756.18 306.935 746.344 309.883 734.217L313.276 720.257C316.282 707.887 306.913 695.967 294.183 695.967C280.146 695.967 270.637 710.26 276.059 723.206L282.871 739.472C284.031 742.241 284.229 745.319 283.434 748.214C280.113 760.302 263.506 761.644 258.286 750.247L248.982 729.934C246.529 724.577 241.989 720.458 236.419 718.536L232.396 717.149C211.104 709.802 191.261 731.32 200.308 751.949C205.606 764.03 200.951 778.163 189.51 784.732L186.803 786.286C164.54 799.067 137.767 779.088 143.683 754.108L156.407 700.378C157.761 694.659 155.972 688.652 151.709 684.607C141.903 675.302 125.683 681.091 123.984 694.502L118.913 734.528C117.934 742.249 110.421 747.374 102.875 745.468L102.316 745.327C98.4143 744.341 95.2749 741.45 93.9714 737.642C89.9275 725.83 72.7424 727.42 70.9346 739.774L67.9658 760.061C66.8628 767.598 60.3981 773.186 52.7805 773.186C42.1742 773.186 34.7652 762.684 38.3223 752.692L42.8643 739.933C46.0327 731.033 43.8918 721.106 37.3366 714.303L33.6977 710.527C22.797 699.214 21.2629 681.83 30.0138 668.783L33.7291 663.244C42.4996 650.167 43.1441 633.262 35.3947 619.556L31.8734 613.328C28.7351 607.778 23.7955 603.465 17.8723 601.105C-0.100258 593.944 -5.55734 571.141 7.22581 556.619L16.4911 546.093C27.2546 533.866 28.9528 516.11 20.7023 502.064C13.5286 489.851 13.8009 474.649 21.4074 462.701L32.6945 444.972C42.2008 430.039 43.1033 411.194 35.0673 395.421L31.1138 387.662C23.5544 372.825 23.8773 355.198 31.9751 340.648L42.7627 321.265C52.2251 304.263 48.3562 282.944 33.5229 270.351L32.6232 269.587C18.7772 257.832 14.7961 238.118 22.9956 221.911C27.2107 213.58 28.3202 204.02 26.1253 194.945L25.3617 191.788C21.4226 175.502 26.2432 158.339 38.0861 146.486L42.0066 142.562C52.5144 132.044 56.4674 116.643 52.3234 102.365L51.4138 99.231Z" fill="#F7E4C4"/>
</svg>
