<svg width="819" height="153" viewBox="0 0 819 153" fill="none" xmlns="http://www.w3.org/2000/svg">
<path d="M6.53407 26.0353C2.19776 14.1939 11.9853 1.98044 24.4871 3.63266L100.955 13.7385C107.282 14.5747 113.699 14.4516 119.99 13.3732L169.235 4.93113C187.986 1.7167 207.269 4.16026 224.626 11.9501C248.202 22.5314 275.053 23.1352 299.081 13.6243L303.736 11.7818C323.158 4.0937 344.398 2.2241 364.865 6.40102L381.889 9.87529C398.445 13.2541 415.526 13.1192 432.027 9.47934L451.362 5.2143C466.629 1.84651 482.595 3.97421 496.448 11.2226C510.364 18.5042 526.41 20.6171 541.737 17.1858L587.396 6.96351C607.994 2.35205 629.206 1.13095 650.197 3.3483L736.464 12.461C752.271 14.1307 768.248 12.0944 783.131 6.51352L798.185 0.86827C799.716 0.294106 801.338 0 802.973 0C812.311 0 818.887 9.17483 815.887 18.0183L814.463 22.2151C813.195 25.9522 813.282 30.0162 814.708 33.6956L816.602 38.578C820.015 47.3819 819.262 57.2578 814.552 65.442L798.523 93.2967C794.209 100.793 794.434 110.07 799.107 117.348L810.957 135.803C815.729 143.233 810.393 153 801.563 153C800.856 153 800.151 152.933 799.456 152.8L733.42 140.114C719.172 137.378 704.697 136 690.189 136H674.687C660.323 136 646.053 138.316 632.426 142.858C612.426 149.525 591.132 151.365 570.285 148.229L566.516 147.662C552.575 145.564 538.408 145.449 524.435 147.32L514.974 148.586C493.119 151.512 470.946 151.084 449.221 147.318L443.948 146.404C419.451 142.158 394.461 141.567 369.791 144.651L347.203 147.475C317.855 151.143 288.158 151.041 258.836 147.171L243.553 145.154C217.678 141.739 191.428 142.41 165.762 147.143C144.675 151.031 123.175 152.182 101.795 150.566L50.3955 146.681C48.8026 146.561 47.2016 146.602 45.6169 146.804L16.3378 150.535C8.52117 151.532 3.00951 143.061 7.08672 136.318C8.88086 133.351 8.89965 129.638 7.13565 126.653L3.21972 120.026C-0.654642 113.469 -0.914439 105.388 2.53075 98.5965L8.559 86.7122C12.2162 79.5023 11.6049 70.8642 6.9688 64.2411L3.35615 59.0802C-0.366409 53.7623 0.0656676 46.5806 4.39895 41.7473C7.8459 37.9027 8.89038 32.4699 7.11479 27.6211L6.53407 26.0353Z" fill="#F7E4C4"/>
</svg>
