<svg width="840" height="644" viewBox="0 0 840 644" fill="none" xmlns="http://www.w3.org/2000/svg">
<g filter="url(#filter0_dd_5006_18258)">
<path d="M57.9404 78.932C48.8189 50.8658 74.1115 23.7139 102.753 30.8249L157.805 44.493C173.441 48.3751 189.943 46.6692 204.454 39.6703L234.907 24.9829C273.414 6.41098 317.682 3.73662 358.145 17.5379L400.867 32.1096C457.697 51.4937 519.335 51.5901 576.226 32.3839L649.586 7.6179C672.094 0.0195494 696.258 -1.23436 719.431 3.99365L744.347 9.61488C758.322 12.7677 770.712 20.805 779.288 32.2802C792.905 50.4996 795.079 74.8416 784.907 95.1858L766.53 131.941C757.953 149.093 759.964 169.643 771.702 184.808L798.122 218.942C808.646 232.539 801.208 252.458 784.348 255.83C765.555 259.589 759.198 283.244 773.575 295.917L817.768 334.87C829.041 344.807 835.5 359.11 835.5 374.137V467.206C835.5 488.54 816.313 504.748 795.28 501.183L782.982 499.099C758.023 494.868 739.997 522.397 753.853 543.583C767.099 563.836 751.187 590.45 727.076 588.368L705.965 586.545C688.515 585.038 674.165 572.169 670.773 554.985L664.41 522.742C662.634 513.744 655.82 506.58 646.922 504.355C631.977 500.619 617.5 511.923 617.5 527.327V583.003C617.5 589.686 614.668 596.055 609.707 600.533C595.616 613.249 573.011 604.771 570.461 585.962C567.346 562.989 536.594 557.091 525.64 577.523L504.878 616.249C496.341 632.173 477.395 639.396 460.424 633.198C444.183 627.267 434.378 610.705 436.988 593.613L446.345 532.339C447.367 525.646 444.689 518.925 439.345 514.768C428.633 506.437 412.893 511.942 409.709 525.134L400.693 562.484C397.503 575.702 387.21 586.038 374.007 589.285C352.936 594.467 332.041 580.175 329.23 558.659L325.316 528.693C322.846 509.788 301.528 499.9 285.501 510.225C275.274 516.814 261.844 515.42 253.188 506.871L252.069 505.766C239.421 493.274 218.478 495.619 208.906 510.598L185.512 547.206C171.367 569.342 144.983 580.392 119.285 574.944L85.7569 567.836C59.8353 562.341 44.5558 535.414 53.1327 510.343C59.0721 492.982 53.6567 473.757 39.529 462.048L28.3823 452.81C5.7307 434.037 -1.52417 402.41 10.6807 375.642L30.3847 332.425C42.7355 305.336 45.1923 274.773 37.3272 246.06L29.8389 218.722C22.2497 191.015 25.8122 161.438 39.7634 136.326L55.0502 108.81C60.1202 99.6837 61.1672 88.8605 57.9404 78.932Z" fill="#F7E4C4"/>
</g>
<defs>
<filter id="filter0_dd_5006_18258" x="0.80777" y="0.822266" width="838.692" height="642.584" filterUnits="userSpaceOnUse" color-interpolation-filters="sRGB">
<feFlood flood-opacity="0" result="BackgroundImageFix"/>
<feColorMatrix in="SourceAlpha" type="matrix" values="0 0 0 0 0 0 0 0 0 0 0 0 0 0 0 0 0 0 127 0" result="hardAlpha"/>
<feOffset dy="4"/>
<feGaussianBlur stdDeviation="2"/>
<feComposite in2="hardAlpha" operator="out"/>
<feColorMatrix type="matrix" values="0 0 0 0 0 0 0 0 0 0 0 0 0 0 0 0 0 0 0.25 0"/>
<feBlend mode="normal" in2="BackgroundImageFix" result="effect1_dropShadow_5006_18258"/>
<feColorMatrix in="SourceAlpha" type="matrix" values="0 0 0 0 0 0 0 0 0 0 0 0 0 0 0 0 0 0 127 0" result="hardAlpha"/>
<feOffset dy="4"/>
<feGaussianBlur stdDeviation="2"/>
<feComposite in2="hardAlpha" operator="out"/>
<feColorMatrix type="matrix" values="0 0 0 0 0 0 0 0 0 0 0 0 0 0 0 0 0 0 0.25 0"/>
<feBlend mode="normal" in2="effect1_dropShadow_5006_18258" result="effect2_dropShadow_5006_18258"/>
<feBlend mode="normal" in="SourceGraphic" in2="effect2_dropShadow_5006_18258" result="shape"/>
</filter>
</defs>
</svg>
