<svg width="825" height="124" viewBox="0 0 825 124" fill="none" xmlns="http://www.w3.org/2000/svg">
<path d="M0 45.5C0 20.371 20.371 0 45.5 0H734C784.258 0 825 40.7421 825 91V102.272C825 106.412 822.716 110.215 819.06 112.16L815.058 114.288C809.108 117.453 801.985 112.897 802.364 106.168C802.792 98.5739 793.913 94.1667 788.123 99.0988L782.482 103.904C778.858 106.991 773.735 107.602 769.486 105.455L753.873 97.5621C741.003 91.0565 725.293 95.647 717.951 108.059L715.14 112.81C711.954 118.196 706.162 121.5 699.904 121.5H694.419C689.477 121.5 685.176 118.122 684.005 113.321C682.433 106.877 675.444 103.393 669.352 106.016L630.258 122.852C622.424 126.226 613.898 119.786 615.001 111.328C616.277 101.542 605.017 95.1562 597.274 101.275L592.822 104.794C589.479 107.436 585.072 108.317 580.969 107.163L535.809 94.4619C528.221 92.3277 520.073 94.5071 514.563 100.145C507.287 107.59 495.729 108.769 487.1 102.947L469.526 91.0895C465.062 88.078 458.959 90.2833 457.451 95.4522C455.717 101.398 448.149 103.163 443.964 98.5971L443.67 98.2764C440.204 94.4952 434.155 94.7932 431.077 98.8967L429.08 101.561C424.753 107.329 416.131 107.417 411.687 101.739L405.012 93.2104C398.599 85.0151 386.834 83.3993 378.448 89.5622L361.951 101.686C357.27 105.127 350.598 102.612 349.352 96.9373C348.352 92.3804 343.692 89.6321 339.22 90.9616L319.892 96.7078C314.647 98.2672 309.106 95.4049 307.342 90.2244C305.021 83.4064 296.552 81.0828 291.077 85.7617L283.587 92.1616C278.391 96.6021 271.029 97.4683 264.944 94.355L263.758 93.7484C257.461 90.5264 249.89 91.0995 244.149 95.2329L240.593 97.7933C233.755 102.716 224.286 101.584 218.803 95.1863L218.356 94.6648C213.746 89.2871 206.055 87.763 199.743 90.9763L191.765 95.0377C187.237 97.3431 181.733 94.9178 180.378 90.0203C178.693 83.9283 170.958 82.0787 166.699 86.7494L166.161 87.3399C163.23 90.5542 158.342 91.0278 154.849 88.4361L149.979 84.823C147.21 82.769 143.552 82.3608 140.399 83.754L135.352 85.9839C130.504 88.1263 125.226 83.9961 126.139 78.7749C126.85 74.7168 123.727 71 119.607 71H118.013C115.213 71 112.619 72.469 111.178 74.8699L107.149 81.5846C103.596 87.5071 97.4459 91.3955 90.5717 92.0662L86.4907 92.4643C82.9807 92.8068 79.4817 91.7133 76.7913 89.4333L62.2535 77.1132C58.4109 73.8567 52.5673 76.9957 53.1607 81.9975C53.7758 87.1815 47.5404 90.2664 43.7927 86.6323L41.8505 84.749C39.8478 82.8069 36.8299 82.3576 34.3483 83.632L23.4637 89.2213C21.1874 90.3903 18.6652 91 16.1063 91C7.21103 91 0 83.789 0 74.8937V45.5Z" fill="#637F59"/>
</svg>
