<svg width="120" height="40" viewBox="0 0 120 40" fill="none" xmlns="http://www.w3.org/2000/svg">
<path d="M0 10C0 4.47715 4.47715 0 10 0H110C115.523 0 120 4.47715 120 10V33.1757C120 35.8401 117.84 38 115.176 38V38C114.727 38 114.281 37.9375 113.85 37.8144L110.787 36.9392C108.656 36.3303 106.384 36.4466 104.326 37.2696L101.388 38.445C99.0451 39.3819 96.3676 38.7805 94.6509 36.9318L93.3906 35.5745C92.0236 34.1023 89.7759 33.8743 88.1411 35.042L86.9393 35.9005C85.4432 36.9692 83.3413 36.3533 82.6585 34.6463V34.6463C81.8868 32.7171 79.3707 32.2456 77.953 33.7647L76.3185 35.5159C75.2094 36.7042 73.2504 36.3938 72.5631 34.9208V34.9208C71.742 33.1614 69.2427 33.1543 68.4116 34.9089L67.8909 36.0081C67.0023 37.884 64.4762 38.2223 63.1254 36.6463L61.6081 34.8762C59.5592 32.4858 55.6912 33.2083 54.6434 36.1772L54.5868 36.3375C54.2153 37.3901 53.3921 38.221 52.3432 38.6025L50.8691 39.1385C49.5972 39.601 48.2029 38.8709 47.8585 37.5621L47.7814 37.2693C47.2326 35.184 44.3256 35.0449 43.5802 37.0681V37.0681C43.0535 38.4978 41.2701 38.9751 40.0997 37.9997L38.0089 36.2575C37.114 35.5116 35.835 35.4433 34.8657 36.0895L34.6647 36.2235C33.3227 37.1182 31.4973 36.4919 30.9872 34.9617V34.9617C30.4851 33.4553 28.703 32.8192 27.3604 33.6671L22.6091 36.668C21.4565 37.3959 19.93 37.0228 19.2431 35.8453V35.8453C18.2789 34.1923 15.8649 34.2701 15.0091 35.9817L14.3171 37.3658C13.7402 38.5195 12.1227 38.5964 11.4391 37.5026V37.5026C10.9315 36.6903 9.84162 36.4788 9.06699 37.0422L6.86936 38.6405C5.70596 39.4866 4.18952 39.6758 2.85387 39.1415L2.75353 39.1014C1.09049 38.4362 0 36.8255 0 35.0344V10Z" fill="#C3513D"/>
</svg>
